<svg width="40" height="31" xmlns="http://www.w3.org/2000/svg"><title>icon/patronen</title><defs><path id="a" d="M0 .586h39.384V31H0z"/></defs><g fill="none" fill-rule="evenodd"><path d="M12.13 2.005c-.096.923-.148 3.201 1.373 4.647 1.049.994 2.678 1.442 4.834 1.326-1.543-.687-3.689-2.311-3.4-5.973H12.13zM17.702 9c-2.155 0-3.825-.553-4.98-1.652-2.327-2.217-1.63-5.788-1.6-5.939L11.204 1h4.949l-.079.567c-.72 5.168 3.733 5.863 3.923 5.89l-.113.685.116.676c-.819.122-1.585.182-2.299.182zM21.663 7.978c2.166.113 3.784-.332 4.834-1.327 1.521-1.446 1.468-3.723 1.372-4.646h-2.805c.288 3.662-1.858 5.286-3.401 5.973M22.299 9c-.713 0-1.48-.06-2.299-.182l.116-.677-.115-.684c.19-.028 4.641-.75 3.925-5.89L23.848 1h4.948l.083.409c.03.15.727 3.721-1.6 5.938C26.124 8.447 24.453 9 22.299 9" fill="#F27197"/><path d="M10.787 29.967h18.664V11.219l6.123 2.118 2.512-6.973-10.648-4.745H11.815L1.373 6.834l3.358 6.995 6.056-2.678v18.816zM30.485 31H9.753V12.738l-5.52 2.441L0 6.365 11.57.585h16.087l11.727 5.226-3.183 8.836-5.717-1.976V31z" fill="#F27197"/></g></svg>