<?xml version="1.0" encoding="UTF-8" standalone="no"?>
<svg width="40px" height="31px" viewBox="0 0 40 31" version="1.1" xmlns="http://www.w3.org/2000/svg" xmlns:xlink="http://www.w3.org/1999/xlink">
    <!-- Generator: Sketch 49.3 (51167) - http://www.bohemiancoding.com/sketch -->
    <title>icon/projecten</title>
    <desc>Created with Sketch.</desc>
    <defs>
        <polygon id="path-1" points="0 0.1488 39.6570196 0.1488 39.6570196 31 0 31"></polygon>
        <polygon id="path-3" points="0 31 39 31 39 0 0 0"></polygon>
    </defs>
    <g id="Design" stroke="none" stroke-width="1" fill="none" fill-rule="evenodd">
        <g id="Victoriginals_v2_profiel_ingelogd" transform="translate(-358.000000, -2131.000000)">
            <g id="icon/projecten" transform="translate(356.000000, 2127.000000)">
                <g id="Page-1">
                    <g id="Group-3" transform="translate(2.000000, 4.000000)">
                        <mask id="mask-2" fill="white">
                            <use xlink:href="#path-1"></use>
                        </mask>
                        <g id="Clip-2"></g>
                        <path d="M22.4915294,29.8375 L36.2146667,29.8375 L36.2146667,12.97195 L36.7613333,12.9332 C37.7252549,12.865775 38.480549,12.06985 38.480549,11.12125 L38.480549,7.836025 C38.480549,6.887425 37.7252549,6.0915 36.7613333,6.0233 L36.2146667,5.985325 L36.2146667,4.62365 C36.2146667,2.79775 34.7111373,1.3113 32.8625098,1.3113 L4.52917647,1.3113 C2.68054902,1.3113 1.17623529,2.79775 1.17623529,4.62365 L1.17623529,9.542575 L1.23819608,10.123825 L1.23819608,12.070625 C1.23819608,13.360225 2.30015686,14.409575 3.6052549,14.409575 L8.5307451,14.409575 C9.83584314,14.409575 10.8978039,13.360225 10.8978039,12.070625 L10.8978039,9.542575 L22.4915294,9.542575 L22.4915294,23.359275 L4.59035294,23.359275 C2.74172549,23.359275 1.23819608,24.84495 1.23819608,26.671625 L1.23819608,29.740625 L22.4915294,29.740625 L22.4915294,29.8375 Z M37.3911373,31 L21.3150588,31 L21.3150588,30.903125 L0.0617254902,30.903125 L0.0617254902,26.671625 C0.0617254902,24.204025 2.09309804,22.196775 4.59035294,22.196775 L21.3150588,22.196775 L21.3150588,10.705075 L12.0742745,10.705075 L12.0742745,12.070625 C12.0742745,14.00115 10.4844706,15.572075 8.5307451,15.572075 L3.6052549,15.572075 C1.65152941,15.572075 0.0617254902,14.00115 0.0617254902,12.070625 L0.0617254902,10.705075 L-0.000235294118,10.123825 L-0.000235294118,4.62365 C-0.000235294118,2.156825 2.03192157,0.1488 4.52917647,0.1488 L32.8625098,0.1488 C35.3597647,0.1488 37.3911373,2.156825 37.3911373,4.62365 L37.3911373,4.953025 C38.6978039,5.289375 39.6570196,6.46505 39.6570196,7.836025 L39.6570196,11.12125 C39.6570196,12.492225 38.6978039,13.6679 37.3911373,14.00425 L37.3911373,31 Z" id="Fill-1" fill="#F27197" mask="url(#mask-2)"></path>
                    </g>
                    <path d="M32,14.2026458 C30.4574063,14.2026458 29.2026458,15.4574063 29.2026458,17 C29.2026458,18.5425937 30.4574063,19.7973542 32,19.7973542 C33.5425937,19.7973542 34.7973542,18.5425937 34.7973542,17 C34.7973542,15.4574063 33.5425937,14.2026458 32,14.2026458 M32,21 C29.7943476,21 28,19.2056524 28,17 C28,14.7943476 29.7943476,13 32,13 C34.2056524,13 36,14.7943476 36,17 C36,19.2056524 34.2056524,21 32,21" id="Fill-4" fill="#F27197"></path>
                    <path d="M31.5,16.1312217 C31.2963801,16.1312217 31.1312217,16.2963801 31.1312217,16.5 C31.1312217,16.7036199 31.2963801,16.8687783 31.5,16.8687783 C31.7036199,16.8687783 31.8687783,16.7036199 31.8687783,16.5 C31.8687783,16.2963801 31.7036199,16.1312217 31.5,16.1312217 M31.5,18 C30.6726998,18 30,17.3273002 30,16.5 C30,15.673454 30.6726998,15 31.5,15 C32.3273002,15 33,15.673454 33,16.5 C33,17.3273002 32.3273002,18 31.5,18" id="Fill-6" fill="#F27197"></path>
                    <mask id="mask-4" fill="white">
                        <use xlink:href="#path-3"></use>
                    </mask>
                    <g id="Clip-9"></g>
                    <polygon id="Fill-8" fill="#F27197" mask="url(#mask-4)" points="8 25 9 25 9 19 8 19"></polygon>
                    <polygon id="Fill-10" fill="#F27197" mask="url(#mask-4)" points="5 14 12 14 12 13 5 13"></polygon>
                </g>
            </g>
        </g>
    </g>
</svg>