<?xml version="1.0" encoding="utf-8"?>
<!-- Generator: Adobe Illustrator 20.1.0, SVG Export Plug-In . SVG Version: 6.00 Build 0)  -->
<svg version="1.1" id="Layer_1" xmlns="http://www.w3.org/2000/svg" xmlns:xlink="http://www.w3.org/1999/xlink" x="0px" y="0px"
	 viewBox="0 0 90 63" style="enable-background:new 0 0 90 63;" xml:space="preserve">
<style type="text/css">
	.st0{fill:#231F20;}
</style>
<g>
	<path class="st0" d="M85.9,33.6C88.6,36.9,90,40.7,90,45c0,3.3-0.8,6.3-2.4,9.1c-1.6,2.8-3.8,4.9-6.5,6.5C78.3,62.2,75.3,63,72,63
		H20.2c-3.7,0-7-0.9-10.1-2.7S4.6,56,2.7,52.9S0,46.4,0,42.8c0-4.3,1.3-8.2,3.8-11.7s5.8-6,9.7-7.4v-1.1c0-4,1-7.8,3-11.2
		c2-3.5,4.8-6.2,8.2-8.2c3.5-2,7.2-3,11.3-3s7.9,1,11.3,3.1c3.5,2.1,6.2,4.8,8.2,8.2C57.8,9.8,60.3,9,63,9c3.7,0,6.9,1.3,9.6,3.9
		c2.6,2.6,3.9,5.8,3.9,9.6c0,1.7-0.3,3.3-0.8,4.9C79.8,28.3,83.2,30.3,85.9,33.6z M57,33.9c0-0.9-0.3-1.7-1-2.4L42.9,18.6
		c-0.7-0.7-1.5-1-2.4-1c-0.9,0-1.7,0.3-2.4,1L25,31.5c-0.7,0.7-1,1.5-1,2.4c0,0.9,0.3,1.7,1,2.4l1.5,1.5c0.7,0.7,1.5,1,2.5,1
		s1.8-0.3,2.5-1l4.5-4.9v17.7c0,0.9,0.3,1.7,1,2.4c0.7,0.7,1.5,1,2.4,1h2.2c0.9,0,1.7-0.3,2.4-1c0.7-0.7,1-1.5,1-2.4V32.9l4.5,4.9
		c0.7,0.7,1.5,1,2.5,1s1.8-0.3,2.5-1l1.5-1.5C56.6,35.6,57,34.8,57,33.9z"/>
</g>
</svg>
