<?xml version="1.0" standalone="no"?>
<!DOCTYPE svg PUBLIC "-//W3C//DTD SVG 20010904//EN"
 "http://www.w3.org/TR/2001/REC-SVG-20010904/DTD/svg10.dtd">
<svg version="1.0" xmlns="http://www.w3.org/2000/svg"
 width="70.000000pt" height="70.000000pt" viewBox="0 0 70.000000 70.000000"
 preserveAspectRatio="xMidYMid meet">
<metadata>
Created by potrace 1.11, written by Peter Selinger 2001-2013
</metadata>
<g transform="translate(0.000000,70.000000) scale(0.100000,-0.100000)"
fill="#000000" stroke="none">
<path d="M325 630 c-4 -7 -3 -16 3 -22 14 -14 45 -2 40 15 -6 16 -34 21 -43 7z"/>
<path d="M417 624 c-14 -14 -7 -35 11 -32 9 2 17 10 17 17 0 16 -18 25 -28 15z
m18 -14 c3 -5 1 -10 -4 -10 -6 0 -11 5 -11 10 0 6 2 10 4 10 3 0 8 -4 11 -10z"/>
<path d="M221 611 c-10 -6 -11 -13 -2 -27 10 -18 10 -18 11 1 1 11 4 14 7 8 2
-7 9 -13 15 -13 6 0 7 7 4 16 -6 15 -4 15 10 3 15 -12 17 -12 12 1 -5 18 -37
24 -57 11z"/>
<path d="M486 581 c-3 -5 1 -14 9 -21 12 -10 18 -10 30 0 8 7 15 15 15 19 0
10 -48 12 -54 2z"/>
<path d="M152 543 c4 -21 33 -25 33 -3 0 8 -8 16 -18 18 -14 3 -18 -1 -15 -15z"/>
<path d="M102 488 c3 -7 13 -15 23 -17 17 -3 17 -2 3 13 -20 19 -31 21 -26 4z"/>
<path d="M585 460 c-4 -7 -2 -17 4 -23 8 -8 11 -8 11 2 0 7 5 9 11 5 7 -4 10
-1 7 6 -6 18 -25 24 -33 10z"/>
<path d="M73 415 c-19 -21 -16 -27 15 -23 16 2 27 9 27 18 0 20 -27 23 -42 5z"/>
<path d="M600 370 c0 -15 5 -20 18 -18 9 2 17 10 17 18 0 8 -8 16 -17 18 -13
2 -18 -3 -18 -18z"/>
<path d="M63 333 c9 -2 25 -2 35 0 9 3 1 5 -18 5 -19 0 -27 -2 -17 -5z"/>
<path d="M600 295 c8 -10 9 -15 2 -15 -7 0 -9 -7 -5 -17 4 -11 3 -14 -5 -9 -7
4 -12 2 -12 -3 0 -21 31 -10 42 15 10 21 9 27 -3 35 -22 14 -33 11 -19 -6z"/>
<path d="M69 269 c-17 -10 8 -21 31 -14 11 4 20 10 20 14 0 9 -37 9 -51 0z"/>
<path d="M173 163 c-7 -2 -13 -10 -13 -15 0 -6 3 -8 6 -5 4 4 15 -3 25 -14 16
-19 19 -20 25 -6 5 14 -16 49 -28 46 -2 0 -9 -3 -15 -6z"/>
<path d="M271 106 c-13 -16 -12 -17 22 -20 6 -1 15 -5 19 -11 4 -5 8 1 8 14 0
16 -4 21 -14 18 -8 -3 -16 -1 -18 5 -2 6 -9 3 -17 -6z"/>
<path d="M410 110 c0 -5 -6 -7 -14 -4 -16 6 -30 -22 -16 -31 6 -4 10 -2 10 4
0 5 11 8 26 5 22 -4 24 -3 14 16 -12 21 -20 26 -20 10z"/>
</g>
</svg>
