<svg width="40" height="31" viewBox="0 0 40 31" xmlns="http://www.w3.org/2000/svg" xmlns:xlink="http://www.w3.org/1999/xlink"><title>icon/projecten</title><defs><path id="a" d="M0 .149h39.657V31H0z"/><path id="c" d="M0 31h39V0H0z"/></defs><g transform="translate(-2 -4)" fill="none" fill-rule="evenodd"><g transform="translate(2 4)"><mask id="b" fill="#fff"><use xlink:href="#a"/></mask><path d="M22.492 29.837h13.723V12.973l.546-.039c.964-.067 1.72-.863 1.72-1.812V7.836c0-.949-.756-1.745-1.72-1.813l-.546-.038V4.624c0-1.826-1.504-3.313-3.352-3.313H4.529c-1.848 0-3.353 1.487-3.353 3.313v4.919l.062.58v1.948c0 1.29 1.062 2.339 2.367 2.339h4.926c1.305 0 2.367-1.05 2.367-2.34V9.544h11.594V23.36H4.59c-1.848 0-3.352 1.486-3.352 3.313v3.069h21.254v.096zM37.392 31H21.314v-.097H.062v-4.231c0-2.468 2.031-4.475 4.528-4.475h16.725V10.705h-9.24v1.366c0 1.93-1.59 3.501-3.544 3.501H3.605c-1.953 0-3.543-1.57-3.543-3.501v-1.366L0 10.124v-5.5C0 2.157 2.032.149 4.53.149h28.333c2.497 0 4.528 2.008 4.528 4.475v.329c1.307.336 2.266 1.512 2.266 2.883v3.285c0 1.371-.96 2.547-2.266 2.883V31z" fill="#F27197" mask="url(#b)"/></g><path d="M32 14.203A2.8 2.8 0 0 0 29.203 17 2.8 2.8 0 0 0 32 19.797 2.8 2.8 0 0 0 34.797 17 2.8 2.8 0 0 0 32 14.203M32 21c-2.206 0-4-1.794-4-4s1.794-4 4-4 4 1.794 4 4-1.794 4-4 4" fill="#F27197"/><path d="M31.5 16.131a.369.369 0 1 0 0 .738.369.369 0 0 0 0-.738m0 1.869c-.827 0-1.5-.673-1.5-1.5s.673-1.5 1.5-1.5 1.5.673 1.5 1.5-.673 1.5-1.5 1.5" fill="#F27197"/><mask id="d" fill="#fff"><use xlink:href="#c"/></mask><path fill="#F27197" mask="url(#d)" d="M8 25h1v-6H8zM5 14h7v-1H5z"/></g></svg>